<svg xmlns="http://www.w3.org/2000/svg" xmlns:xlink="http://www.w3.org/1999/xlink" version="1.1" id="Layer_1" x="0px" y="0px" style="enable-background:new 0 0 2000 2000;" xml:space="preserve" viewBox="221.2 763.3 1557.7 473.3">
<style type="text/css">
	.st0{fill:#fff;}
	.st1{fill:#fff;}
</style>
<g>
	<path class="st0" d="M699.5,1052.2L576.4,763.3h-1.5l-124.2,288.9c-7.6,16.8-19.8,23.2-29.7,23.2v1.5c8.4,0,21.7-1.5,28.6-1.5   c6.5,0,22.5,1.5,30.9,1.5v-1.5c-5.7,0-11.4-6.1-11.4-16c0-3.4,0.8-7.2,2.7-11.4l21-50.3h154l20.6,50.3c2.7,5.7,3.8,11.1,3.8,15.2   c0,7.6-3.4,12.2-10.3,12.2c0,0,0,1.5,0,1.5c8,0,25.5-1.5,32.4-1.5c6.5,0,27.4,1.5,35.4,1.5v-1.5   C722,1075.4,706.4,1068.2,699.5,1052.2z M499.1,982.8l71.3-169.6l70.1,169.6H499.1z"/>
	<path class="st0" d="M976.5,769.4v1.5c6.5,0,15.6,7.2,15.6,23.2v222.2L800.1,799.9c-5.3-5.7-8-9.1-8-16.8c0-5.3,1.9-11.1,4.2-12.2   v-1.5c-8.4,0-22.5,1.1-29,1.1c-6.9,0-25.2-1.1-33.5-1.1v1.5c6.9,0,24.8,5.7,24.8,26.3v254.9c0,16-12.2,23.2-18.7,23.2v1.5   c8,0,20.6-1.5,27.4-1.5c6.5,0,19.4,1.5,27.4,1.5v-1.5c-6.9,0-18.7-7.2-18.7-23.2V817.8l232.1,262.6h1.5V794.2   c0-16,9.1-23.2,15.6-23.2v-1.5c-8,0-17.5,1.1-24.4,1.1C994.4,770.6,984.5,769.4,976.5,769.4z"/>
	<path class="st0" d="M1071,769.4v1.5c6.5,0,15.6,7.2,15.6,23.2v258c0,16-9.1,23.2-15.6,23.2v1.5c8,0,22.9-1.5,29.3-1.5   c6.9,0,21.7,1.5,29.7,1.5v-1.5c-6.5,0-15.6-7.2-15.6-23.2v-258c0-16,9.1-23.2,15.6-23.2v-1.5c-8,0-22.9,1.1-29.7,1.1   C1093.9,770.6,1079,769.4,1071,769.4z"/>
	<path class="st0" d="M1191,829.6c0-41.5,32-57.2,56.8-57.2c34.3,0,56.4,23.2,59.1,37.3h1.5c1.1-8,2.7-24.4,2.7-32.4   c-6.9-2.7-31.2-13.7-65.2-13.7c-41.2,0-73.2,30.1-73.2,73.9c0,88.4,130.7,107.5,130.7,178c0,27.4-22.1,56.8-61.7,56.8   c-30.9,0-65.9-8.4-71.6-46.1h-1.5c0,18.3-0.4,26.3,1.9,46.1c16.8,3.8,41.9,10.3,71.3,10.3c62.1,0,81.5-50.3,81.5-81.2   C1323.3,919.6,1191,891.4,1191,829.6z"/>
	<path class="st0" d="M1362.7,769.4v1.5c6.5,0,15.6,7.2,15.6,23.2v258c0,16-9.1,23.2-15.6,23.2v1.5c8,0,22.9-1.5,29.3-1.5   c6.9,0,21.7,1.5,29.7,1.5v-1.5c-6.5,0-15.6-7.2-15.6-23.2v-258c0-16,9.1-23.2,15.6-23.2v-1.5c-8,0-22.9,1.1-29.7,1.1   C1385.5,770.6,1370.7,769.4,1362.7,769.4z"/>
	<path class="st0" d="M1622.2,763.7c-74.3,0-160.4,49.9-160.4,158.9c0,109.4,86.1,160.1,157.8,160.1c71.3,0,159.3-50.7,159.3-153.2   C1778.8,801.5,1682.8,763.7,1622.2,763.7z M1629,1072.4c-75.5,0-137.2-66.3-137.2-162c0-96,67.1-137.9,125.4-137.9   c61.7,0,131.5,59.4,131.5,159.3C1748.7,1030.9,1680.5,1072.4,1629,1072.4z"/>
	<path class="st0" d="M337.5,863.8c-7.2-1.7-16.6-3.2-28.1-3.5c17.5-7.7,31.7-23.9,31.7-43.4c0-30.7-22.6-46.1-50.6-46.1   c-5.2,0-24.8,0.7-29.2,0.7c-4.2,0-20.1-0.7-25.3-0.7v0.2c-6.1-0.2-11.7-0.4-14.8-0.4v1.5c6.5,0,16,7.2,16,23.2v258   c0,16-9.5,23.2-16,23.2v1.5c7.9,0,36.1-1.5,43.3-1.5v-0.1c5.3,0.2,11.8,0.4,18.6,0.7c14.5,0.5,29.5,1.1,35,1.1   c34,0,58.5-11.1,79.5-32.1c20.8-20.9,31.8-49.6,31.8-83.1C429.3,901.4,382.1,874.1,337.5,863.8z M264.5,777.9   c4.7-1.5,11.3-2.2,19.7-2.2c18.1,0,38.4,15.6,38.4,39.6c0,29.6-15,46.2-44.7,46.3c-2.3,0-4.8-0.1-7.3-0.2c-2.8-0.2-5.2-0.4-6.1-0.7   V777.9z M373.5,1042.4c-16.6,19.1-41,28.8-72.5,28.8c-12.3,0-26.2-1.8-36.6-3.8V869.8c9.7-0.7,22.7-1.1,28.6-1.1   c34.8,0,61.7,9.9,80,29.3c15.9,16.9,24.3,40.4,24.3,68C397.3,998.5,389.3,1024.2,373.5,1042.4z"/>
	<g>
		<g>
			<path class="st0" d="M614.9,1171.7v-0.3c1.7,0,5.1,0.2,6.4,0.2c1.3,0,4.2-0.2,5.9-0.2v0.3c-2,0-4.6,1.3-6.1,4.8l-25.9,60.1h-0.3     l-25.5-60.1c-1.4-3.3-4.7-4.8-6.1-4.8v-0.3c1.7,0,6,0.2,7.5,0.2c1.3,0,5.3-0.2,7.1-0.2v0.3c-1.4,0-2.2,0.9-2.2,2.5     c0,0.9,0.2,2,0.8,3.2l20,48.4l20.5-48.4c0.4-0.9,0.6-1.7,0.6-2.4C617.3,1173,616.1,1171.7,614.9,1171.7z"/>
			<path class="st0" d="M643.9,1171.7v-0.3c1.7,0,4.8,0.2,6.1,0.2c1.4,0,4.5-0.2,6.2-0.2v0.3c-1.3,0-3.2,1.5-3.2,4.8v53.7     c0,3.3,1.9,4.8,3.2,4.8v0.3c-1.7,0-4.8-0.3-6.2-0.3c-1.3,0-4.4,0.3-6.1,0.3v-0.3c1.3,0,3.2-1.5,3.2-4.8v-53.7     C647.2,1173.2,645.3,1171.7,643.9,1171.7z"/>
			<path class="st0" d="M730.2,1222.8v-46.2c0-3.3-1.9-4.8-3.2-4.8v-0.3c1.7,0,3.7,0.2,5.1,0.2c1.4,0,3.4-0.2,5.1-0.2v0.3     c-1.3,0-3.2,1.5-3.2,4.8v59.5h-0.3l-48.3-54.6v48.7c0,3.3,2.5,4.8,3.9,4.8v0.3c-1.7,0-4.4-0.3-5.7-0.3c-1.4,0-4,0.3-5.7,0.3v-0.3     c1.3,0,3.9-1.5,3.9-4.8v-53c0-4.3-3.7-5.5-5.2-5.5v-0.3c1.7,0,5.5,0.2,7,0.2c1.3,0,4.3-0.2,6-0.2v0.3c-0.5,0.2-0.9,1.4-0.9,2.5     c0,1.6,0.6,2.3,1.7,3.5L730.2,1222.8z"/>
			<path class="st0" d="M822.5,1204.7c0,21.3-18.3,31.9-33.1,31.9c-14.9,0-32.8-10.5-32.8-33.3c0-22.7,17.9-33.1,33.4-33.1     C802.5,1170.2,822.5,1178.1,822.5,1204.7z M816.2,1205.2c0-20.8-14.5-33.1-27.3-33.1c-12.1,0-26.1,8.7-26.1,28.7     c0,19.9,12.8,33.7,28.5,33.7C802,1234.4,816.2,1225.8,816.2,1205.2z"/>
			<path class="st0" d="M840.7,1224.8c1.2,7.8,8.5,9.6,14.9,9.6c8.2,0,12.8-6.1,12.8-11.8c0-14.7-27.2-18.6-27.2-37     c0-9.1,6.7-15.4,15.2-15.4c7.1,0,12.1,2.3,13.6,2.9c0,1.7-0.3,5.1-0.6,6.7h-0.3c-0.6-2.9-5.1-7.8-12.3-7.8     c-5.1,0-11.8,3.2-11.8,11.9c0,12.8,27.5,18.7,27.5,35.7c0,6.4-4,16.9-17,16.9c-6.1,0-11.3-1.3-14.8-2.1c-0.5-4.1-0.4-5.8-0.4-9.6     H840.7z"/>
			<path class="st0" d="M925.7,1171.7v-0.3c1.7,0,10.2,0.2,11.6,0.2c2.9,0,8.9-0.6,12.8-0.6c13.4,0,32,4.5,32,33.6     c0,17.2-11.8,31-32,31c-1.7,0-11.4-0.6-12.8-0.6c-1.3,0-9.8,0.3-11.6,0.3v-0.3c1.4,0,3.3-1.5,3.3-4.8v-53.7     C929,1173.2,927.1,1171.7,925.7,1171.7z M949.3,1233.8c13.2,0,26.6-7.6,26.6-28.6c0-25.2-13.7-31.9-26.6-31.9     c-5.1,0-12.3,0.3-14.4,1.1v57.6C937.4,1233.1,944.2,1233.8,949.3,1233.8z"/>
			<path class="st0" d="M1024.3,1200.5c3.3-0.2,4.8-2,4.8-3.3h0.3c0,1.7-0.2,3.5-0.2,4.9c0,1.3,0.2,3.2,0.2,4.8h-0.3     c0-1.3-1.5-3.2-4.8-3.3c-3.5-0.1-12.3-0.2-14.1-0.2v12.1c0,11.3,0.2,14.9,0.6,17c6.7,0,13.1-0.1,18.2-0.3     c5.5-0.2,7.2-2.6,8.2-4.5l0.3,0.2c-1.3,5.4-2.1,7.5-6.3,7.5c-4.1,0-11.7-0.3-15.1-0.3c-3.3,0-10.9,0.3-15.1,0.3v-0.3     c1.3,0,3.3-1.5,3.3-4.8v-53.7c0-3.3-2-4.8-3.3-4.8v-0.3c3.3,0,9.1,0.2,11.7,0.2c2.6,0,9.8-0.2,13.1-0.2c1.7,0,2.1,0.2,3.1,5.6     l-0.3,0.1c-0.7-1.7-1.4-2.4-4.2-2.5c-4-0.2-7.6-0.3-14.3-0.3v26.4C1012,1200.7,1020.8,1200.6,1024.3,1200.5z"/>
			<path class="st0" d="M1142.9,1183.4c0-0.5-0.2-3.2-3-5.9c-3.6-3.6-11.1-5.4-17.2-5.4c-12.1,0-27.6,7.9-27.6,28.7     c0,21.6,14.3,33.7,30,33.7c9.3,0,14.5-3,17.1-5.5c2-2,3.2-4.8,3.8-5.9l0.2,0.1c-0.4,1.7-1.3,6.3-2.9,10.2     c-2.1,0.8-9.1,3.2-20.2,3.2c-14.9,0-34.4-9-34.4-33.3c0-23.5,19.5-33.1,35-33.1c6.3,0,14.6,2.3,20.5,4.8c0,3.1-0.4,6.4-0.9,8.3     H1142.9z"/>
			<path class="st0" d="M1208.7,1171.7v-0.3c1.7,0,4.8,0.2,6.2,0.2c1.3,0,4.4-0.2,6.2-0.2v0.3c-1.4,0-3.3,1.5-3.3,4.8v53.7     c0,3.3,1.9,4.8,3.3,4.8v0.3c-1.7,0-4.8-0.3-6.2-0.3c-1.4,0-3.6,0.3-5.2,0.3v-0.3c1,0,2.4-1.5,2.4-4.8v-2.5     c-3.5,2.9-11.6,8.9-22.2,8.9c-13.7,0-22.9-10.1-22.9-26.6v-33.4c0-3.3-1.9-4.8-3.3-4.8v-0.3c1.7,0,4.8,0.2,6.2,0.2     c1.4,0,4.5-0.2,6.2-0.2v0.3c-1.3,0-3.3,1.5-3.3,4.8v34.3c0,12.5,8.8,23.5,20.3,23.5c6.7,0,15-5.1,19.1-8.6v-49.3     C1212,1173.2,1210,1171.7,1208.7,1171.7z"/>
			<path class="st0" d="M1250.6,1232.1c5.5,0.1,13,0.2,18.2,0.2c5.5,0,7.2-2.6,8.2-4.5l0.3,0.2c-1.3,5.4-2.1,7.5-6.3,7.5     c-4.1,0-11.7-0.3-15.1-0.3c-3.3,0-10.9,0.3-15.1,0.3v-0.3c1.4,0,3.3-1.5,3.3-4.8v-53.7c0-3.3-1.9-4.8-3.3-4.8v-0.3     c1.7,0,4.8,0.2,6.2,0.2s4.5-0.2,6.2-0.2v0.3c-1.4,0-3.3,1.5-3.3,4.8v38.9C1249.9,1226.7,1250.2,1229.9,1250.6,1232.1z"/>
			<path class="st0" d="M1297.2,1174.6c-2.8,0.2-3.9,2.1-4.7,3.8l-0.3-0.1c1.1-6.1,2.3-6.9,4.2-6.9c3.2,0,14.5,0.2,23,0.2     c9.4,0,19.5-0.2,22.7-0.2c1.9,0,3.1,0.8,4.2,6.9l-0.3,0.1c-0.7-1.7-1.9-3.6-4.7-3.8c-4-0.2-12.1-0.3-18.9-0.3v56     c0,3.3,1.9,4.8,3.3,4.8v0.3c-1.7,0-5-0.3-6.3-0.3s-4.7,0.3-6.3,0.3v-0.3c1.4,0,3.3-1.5,3.3-4.8v-56     C1309.6,1174.3,1301.2,1174.4,1297.2,1174.6z"/>
			<path class="st0" d="M1428.8,1204.7c0,21.3-18.3,31.9-33.1,31.9c-14.9,0-32.8-10.5-32.8-33.3c0-22.7,17.9-33.1,33.4-33.1     C1408.9,1170.2,1428.8,1178.1,1428.8,1204.7z M1422.6,1205.2c0-20.8-14.5-33.1-27.3-33.1c-12.1,0-26.1,8.7-26.1,28.7     c0,19.9,12.8,33.7,28.5,33.7C1408.4,1234.4,1422.6,1225.8,1422.6,1205.2z"/>
		</g>
	</g>
</g>
</svg>